<svg xmlns="http://www.w3.org/2000/svg" width="31" height="31" viewBox="0 0 31 31" fill="none">
    <path d="M15.5 0C6.93956 0 0 6.93956 0 15.5C0 24.0604 6.93956 31 15.5 31C24.0604 31 31 24.0604 31 15.5C31 6.93956 24.0604 0 15.5 0ZM22.6845 10.5413C22.4513 12.9922 21.4419 18.9399 20.9282 21.685C20.711 22.8465 20.2831 23.236 19.869 23.2741C18.969 23.3569 18.2854 22.6793 17.4136 22.1077C16.0494 21.2135 15.2787 20.6568 13.9544 19.7842C12.4241 18.7757 13.4162 18.2217 14.2883 17.3154C14.5166 17.0784 18.4825 13.4711 18.5592 13.1438C18.5688 13.1029 18.578 12.9501 18.4871 12.8698C18.3962 12.7896 18.2628 12.8168 18.1662 12.8386C18.0294 12.8696 15.8501 14.3101 11.6282 17.1599C11.0096 17.5847 10.4494 17.7916 9.94731 17.7808C9.39388 17.7689 8.32931 17.4679 7.53788 17.2106C6.56719 16.8951 5.79569 16.7283 5.86287 16.1924C5.89787 15.9133 6.28225 15.6279 7.016 15.3362C11.5346 13.3675 14.5477 12.0696 16.0553 11.4424C20.3598 9.652 21.2542 9.341 21.8372 9.33062C21.9654 9.3285 22.2521 9.36025 22.4378 9.51094C22.5613 9.61828 22.6401 9.76808 22.6584 9.93069C22.6899 10.1326 22.6986 10.3374 22.6845 10.5413Z" fill="#3A3A3A"/>
</svg>